<?xml version="1.0" encoding="UTF-8"?>
<svg width="14px" height="14px" viewBox="0 0 14 14" version="1.1" xmlns="http://www.w3.org/2000/svg" xmlns:xlink="http://www.w3.org/1999/xlink">
    <!-- Generator: Sketch 60.1 (88133) - https://sketch.com -->
    <title>Setting-G</title>
    <desc>Created with Sketch.</desc>
    <g id="页面-1" stroke="none" stroke-width="1" fill="none" fill-rule="evenodd">
        <path d="M4.5652489,2.78838556 C3.89246306,3.16669693 3.09953688,3.28962035 2.33919633,3.13365534 C1.91650307,3.61740708 1.57525993,4.16323041 1.3279827,4.75076909 C1.86641208,5.31713838 2.16520191,6.06020839 2.16464442,6.831441 C2.16520191,7.64821084 1.83025848,8.43128856 1.23410042,9.00676529 C1.4849735,9.69096216 1.86248173,10.3246615 2.34811626,10.8765022 C3.15509133,10.6668684 4.01472187,10.7774046 4.73796108,11.1838785 C5.416963,11.5644126 5.92578935,12.1775659 6.16478777,12.9033698 C6.80830509,12.9894568 7.46174584,12.975389 8.10066382,12.8617628 C8.31518817,12.0720172 8.84511574,11.398283 9.57292641,10.9903182 C10.2594545,10.6041734 11.0706387,10.4843129 11.8442755,10.6544811 C12.2438885,10.1525958 12.5593195,9.59237948 12.7790565,8.99467624 C12.2598886,8.43234567 11.9729734,7.7032621 11.9734194,6.94769646 C11.9734194,6.19064002 12.2581603,5.48006951 12.749788,4.93183379 C12.5434309,4.38812469 12.2565157,3.8765085 11.8980739,3.41327561 C11.0994891,3.61222993 10.2525973,3.49892897 9.53894705,3.09755082 C8.77935912,2.67169641 8.2366649,1.95730402 8.04112327,1.12614116 C7.35643489,1.01210834 6.65674988,1.01221677 5.9720615,1.12657484 C5.72553689,1.82782107 5.22565834,2.41831425 4.5652489,2.78838556 Z M5.06830517,0.258765358 C6.34630838,-0.0881849616 7.72251447,-0.0929555285 9.03806501,0.285139003 C8.97710285,1.04588179 9.36079929,1.77539905 10.0308813,2.17257585 C10.7008796,2.56972554 11.5435344,2.56717762 12.2109962,2.16601632 C13.0618462,3.03317527 13.6692099,4.09833986 13.9750799,5.25943079 C13.3930823,5.63454371 13.0434488,6.26835147 13.0437555,6.94726277 C13.0433373,7.6366639 13.4036468,8.27882015 14,8.65152069 C13.8376572,9.29982989 13.5806796,9.92219913 13.2371507,10.4997901 C12.9404236,11.0002659 12.5811176,11.4633091 12.1674558,11.8781316 C11.5265587,11.5293652 10.7440019,11.5345423 10.1080944,11.8920096 C9.44453515,12.2642764 9.04472709,12.9606708 9.06691542,13.7052045 C7.82378356,14.0676591 6.50288106,14.0964452 5.2441672,13.7884454 C5.22596497,13.0830521 4.83136949,12.4377245 4.20268155,12.0853531 C3.54413972,11.7151733 2.73053046,11.7235489 2.08015594,12.1071459 C1.04878884,11.1671545 0.325243008,9.95236755 0,8.61479275 C0.674235335,8.26114737 1.09453137,7.57629997 1.09430837,6.831441 C1.09430837,6.09143392 0.686082119,5.44363972 0.0767671619,5.09042803 C0.239555915,4.53465699 0.472338257,4.00059745 0.769929477,3.50031135 C1.11248273,2.92209696 1.53835372,2.39448852 2.03441341,1.93347829 C2.66443934,2.2493386 3.41630595,2.23185556 4.02996938,1.88701947 C4.63515887,1.54809238 5.02507138,0.936511123 5.06830517,0.258765358 Z M7.12451667,8.61341037 C7.97283005,8.61341037 8.66055678,7.94466363 8.66055678,7.11973503 C8.66055678,6.29483354 7.97283005,5.6260868 7.12451667,5.6260868 C6.27617542,5.6260868 5.58856019,6.29483354 5.58856019,7.11973503 C5.58856019,7.94466363 6.27617542,8.61341037 7.12451667,8.61341037 Z M7.12451667,9.65420711 C5.68503482,9.65420711 4.51811264,8.51948983 4.51811264,7.11973503 C4.51811264,5.72000734 5.68503482,4.58529005 7.12451667,4.58529005 C8.56397064,4.58529005 9.7309207,5.72000734 9.7309207,7.11973503 C9.7309207,8.51948983 8.56397064,9.65420711 7.12451667,9.65420711 Z" id="settings备份" fill="#122134"></path>
    </g>
</svg>