<?xml version="1.0" encoding="UTF-8"?>
<svg width="22px" height="20px" viewBox="0 0 22 20" version="1.1" xmlns="http://www.w3.org/2000/svg" xmlns:xlink="http://www.w3.org/1999/xlink">
    <!-- Generator: Sketch 60.1 (88133) - https://sketch.com -->
    <title>Date</title>
    <desc>Created with Sketch.</desc>
    <g id="页面-1" stroke="none" stroke-width="1" fill="none" fill-rule="evenodd">
        <g id="Add-Description-of-Achievement" transform="translate(-813.000000, -356.000000)" fill="#8C95A8">
            <path d="M823.214386,368.307722 L824.785814,368.307722 C825.224612,368.307722 825.571429,367.968181 825.571429,367.538588 C825.571429,367.10875 825.224612,366.769257 824.785814,366.769257 L823.214386,366.769257 C822.775338,366.769257 822.428571,367.10875 822.428571,367.538588 C822.428571,367.968181 822.775338,368.307722 823.214386,368.307722 Z M823.214386,371.384653 L824.785814,371.384653 C825.224612,371.384653 825.571429,371.045111 825.571429,370.615518 C825.571429,370.18568 825.224612,369.846188 824.785814,369.846188 L823.214386,369.846188 C822.775338,369.846188 822.428571,370.18568 822.428571,370.615518 C822.428571,371.045111 822.775338,371.384653 823.214386,371.384653 Z M831.857143,357.538465 L828.714286,357.538465 L828.714286,356.769331 C828.714286,356.339493 828.367469,356 827.928671,356 C827.489624,356 827.142857,356.339493 827.142857,356.769331 L827.142857,357.538465 L820.857143,357.538465 L820.857143,356.769331 C820.857143,356.339493 820.510326,356 820.071529,356 C819.632481,356 819.285714,356.339493 819.285714,356.769331 L819.285714,357.538465 L816.142857,357.538465 C814.414926,357.538465 813,358.923711 813,360.615396 L813,372.923118 C813,374.614754 814.414926,376 816.142857,376 L831.857143,376 C833.585024,376 835,374.614754 835,372.923118 L835,360.615396 C835,358.923711 833.585024,357.538465 831.857143,357.538465 Z M833.428571,372.923118 C833.428571,373.770454 832.722634,374.461584 831.857143,374.461584 L816.142857,374.461584 C815.277316,374.461584 814.571429,373.770454 814.571429,372.923118 L814.571429,363.692327 L833.428571,363.692327 L833.428571,372.923118 Z M833.428571,362.153861 L814.571429,362.153861 L814.571429,360.615396 C814.571429,359.768011 815.277316,359.076931 816.142857,359.076931 L819.285714,359.076931 L819.285714,359.846261 C819.285714,360.275854 819.632481,360.615396 820.071529,360.615396 C820.510326,360.615396 820.857143,360.275854 820.857143,359.846261 L820.857143,359.076931 L827.142857,359.076931 L827.142857,359.846261 C827.142857,360.275854 827.489624,360.615396 827.928671,360.615396 C828.367469,360.615396 828.714286,360.275854 828.714286,359.846261 L828.714286,359.076931 L831.857143,359.076931 C832.722634,359.076931 833.428571,359.768011 833.428571,360.615396 L833.428571,362.153861 Z M818.5001,371.384653 L820.071529,371.384653 C820.510326,371.384653 820.857143,371.045111 820.857143,370.615518 C820.857143,370.18568 820.510326,369.846188 820.071529,369.846188 L818.5001,369.846188 C818.061102,369.846188 817.714286,370.18568 817.714286,370.615518 C817.714286,371.045111 818.061102,371.384653 818.5001,371.384653 Z M827.928671,368.307722 L829.5001,368.307722 C829.938898,368.307722 830.285714,367.968181 830.285714,367.538588 C830.285714,367.10875 829.938898,366.769257 829.5001,366.769257 L827.928671,366.769257 C827.489624,366.769257 827.142857,367.10875 827.142857,367.538588 C827.142857,367.968181 827.489624,368.307722 827.928671,368.307722 Z M818.5001,368.307722 L820.071529,368.307722 C820.510326,368.307722 820.857143,367.968181 820.857143,367.538588 C820.857143,367.10875 820.510326,366.769257 820.071529,366.769257 L818.5001,366.769257 C818.061102,366.769257 817.714286,367.10875 817.714286,367.538588 C817.714286,367.968181 818.061102,368.307722 818.5001,368.307722 Z M827.928671,371.384653 L829.5001,371.384653 C829.938898,371.384653 830.285714,371.045111 830.285714,370.615518 C830.285714,370.18568 829.938898,369.846188 829.5001,369.846188 L827.928671,369.846188 C827.489624,369.846188 827.142857,370.18568 827.142857,370.615518 C827.142857,371.045111 827.489624,371.384653 827.928671,371.384653 Z" id="Date"></path>
        </g>
    </g>
</svg>