<?xml version="1.0" encoding="UTF-8"?>
<svg width="41px" height="32px" viewBox="0 0 41 32" version="1.1" xmlns="http://www.w3.org/2000/svg" xmlns:xlink="http://www.w3.org/1999/xlink">
    <!-- Generator: Sketch 60.1 (88133) - https://sketch.com -->
    <title>upload</title>
    <desc>Created with Sketch.</desc>
    <g id="页面-1" stroke="none" stroke-width="1" fill="none" fill-rule="evenodd">
        <g id="Document-Uploading" transform="translate(-620.000000, -342.000000)" fill="#9BA6BE">
            <path d="M661,360.291257 C661,364.273149 657.72449,367.512435 653.698348,367.512435 L646.239136,367.512435 C645.78514,367.512435 645.416881,367.148187 645.416881,366.699087 C645.416881,366.249688 645.78514,365.885589 646.239136,365.885589 L653.698348,365.885589 C656.817453,365.885589 659.355289,363.376041 659.355289,360.291257 C659.355289,357.214074 656.830211,354.709345 653.721703,354.696727 C653.704827,354.697869 653.688303,354.698664 653.671628,354.699062 C653.433053,354.705272 653.202715,354.607652 653.042041,354.432582 C652.881367,354.257363 652.805625,354.021586 652.834857,353.786752 C652.888248,353.357324 652.912959,353.001621 652.912959,352.666485 C652.912959,350.251377 651.962376,347.981681 650.236247,346.274354 C648.509718,344.566977 646.214425,343.626797 643.773325,343.626797 C641.870049,343.626797 640.046783,344.20099 638.501319,345.287326 C636.989858,346.350015 635.851328,347.819031 635.209335,349.5353 C635.111845,349.79557 634.887384,349.988226 634.6135,350.047642 C634.339817,350.106612 634.053928,350.023747 633.855786,349.827762 C633.080643,349.059075 632.049798,348.636056 630.952855,348.636056 C628.689757,348.636056 626.84846,350.4569 626.84846,352.694802 C626.84846,352.70742 626.850218,352.733999 626.852177,352.759633 C626.854738,352.796098 626.857249,352.832364 626.858455,352.869474 C626.871966,353.245546 626.622793,353.581825 626.255538,353.682376 C624.95553,354.03788 623.782846,354.81705 622.953559,355.876808 C622.097351,356.970497 621.644711,358.281582 621.644711,359.668925 C621.644711,363.096595 624.46502,365.885589 627.930636,365.885589 L634.760864,365.885589 C635.214659,365.885589 635.583119,366.249688 635.583119,366.699087 C635.583119,367.148187 635.214659,367.512435 634.760864,367.512435 L627.930636,367.512435 C623.557832,367.512435 620,363.993703 620,359.668925 C620,357.918129 620.571525,356.262369 621.652547,354.880888 C622.568976,353.710295 623.818205,352.810852 625.217059,352.304919 C625.420525,349.35094 627.915167,347.009259 630.952855,347.009259 C632.093545,347.009259 633.183054,347.33585 634.113195,347.944223 C634.903105,346.359703 636.075739,344.996454 637.548626,343.961536 C639.374202,342.678023 641.526701,342 643.773325,342 C646.654106,342 649.362008,343.109437 651.398886,345.123782 C653.436016,347.138673 654.55767,349.817081 654.55767,352.666485 C654.55767,352.813585 654.553552,352.963368 654.545716,353.118218 C658.174367,353.534679 661,356.592686 661,360.291257 Z M645.180867,361.597076 C645.020344,361.755653 644.809846,361.835388 644.599347,361.835388 C644.388798,361.835388 644.1783,361.755653 644.017977,361.597076 L641.32223,358.931089 L641.32223,373.186701 C641.32223,373.636149 640.954372,374 640.499975,374 C640.045577,374 639.677519,373.636149 639.677519,373.186701 L639.677519,358.931089 L636.981972,361.597076 C636.660825,361.914775 636.14033,361.914775 635.819133,361.597076 C635.497935,361.279427 635.497935,360.764204 635.819133,360.446505 L639.918655,356.39223 C640.239652,356.074531 640.760147,356.074531 641.081345,356.39223 L645.180867,360.446505 C645.501814,360.764204 645.501814,361.279427 645.180867,361.597076 Z" id="upload"></path>
        </g>
    </g>
</svg>