<?xml version="1.0" encoding="UTF-8"?>
<svg width="19px" height="20px" viewBox="0 0 19 20" version="1.1" xmlns="http://www.w3.org/2000/svg" xmlns:xlink="http://www.w3.org/1999/xlink">
    <!-- Generator: Sketch 60.1 (88133) - https://sketch.com -->
    <title>delete</title>
    <desc>Created with Sketch.</desc>
    <g id="页面-1" stroke="none" stroke-width="1" fill="none" fill-rule="evenodd">
        <g id="Entry-of-Validator-Information--(By-User)" transform="translate(-816.000000, -372.000000)" fill="#8C95A8">
            <path d="M829.999979,374.926862 L834.500154,374.926862 C834.776171,374.926862 835,375.14523 835,375.414704 L835,375.902355 C835,376.171829 834.776171,376.390197 834.500154,376.390197 L833.000031,376.390197 L833.000031,391.512158 C833.000031,391.781593 832.776202,392 832.49999,392 L818.50001,392 C818.223837,392 817.999969,391.781593 817.999969,391.512158 L817.999969,376.390197 L816.500041,376.390197 C816.223829,376.390197 816,376.171829 816,375.902355 L816,375.414704 C816,375.14523 816.223829,374.926862 816.500041,374.926862 L821.000021,374.926862 L821.000021,372.487842 C821.000021,372.218368 821.22385,372 821.500062,372 L829.500134,372 C829.77615,372 829.999979,372.218368 829.999979,372.487842 L829.999979,374.926862 Z M822.499949,374.926862 L828.500051,374.926862 L828.500051,373.463336 L822.499949,373.463336 L822.499949,374.926862 Z M829.500134,376.390197 L819.500093,376.390197 L819.500093,390.536474 L831.500103,390.536474 L831.500103,376.390197 L829.500134,376.390197 Z M822.99999,379.804901 L823.500031,379.804901 C823.776204,379.804901 824.000072,380.02327 824.000072,380.292743 L824.000072,386.146276 C824.000072,386.41575 823.776204,386.634118 823.500031,386.634118 L822.99999,386.634118 C822.723817,386.634118 822.499949,386.41575 822.499949,386.146276 L822.499949,380.292743 C822.499949,380.02327 822.723817,379.804901 822.99999,379.804901 Z M827.499969,379.804901 L828.00001,379.804901 C828.276222,379.804901 828.500051,380.02327 828.500051,380.292743 L828.500051,386.146276 C828.500051,386.41575 828.276222,386.634118 828.00001,386.634118 L827.499969,386.634118 C827.223952,386.634118 827.000123,386.41575 827.000123,386.146276 L827.000123,380.292743 C827.000123,380.02327 827.223952,379.804901 827.499969,379.804901 Z" id="delete"></path>
        </g>
    </g>
</svg>