<?xml version="1.0" encoding="UTF-8"?>
<svg width="16px" height="16px" viewBox="0 0 16 16" version="1.1" xmlns="http://www.w3.org/2000/svg" xmlns:xlink="http://www.w3.org/1999/xlink">
    <!-- Generator: Sketch 60.1 (88133) - https://sketch.com -->
    <title>search@2x</title>
    <desc>Created with Sketch.</desc>
    <defs>
        <polygon id="path-1" points="0 0.00626903486 15.9937845 0.00626903486 15.9937845 16.0000143 0 16.0000143"></polygon>
    </defs>
    <g id="页面-1" stroke="none" stroke-width="1" fill="none" fill-rule="evenodd">
        <g id="Entry-of-Validator-Information--(By-User)" transform="translate(-445.000000, -302.000000)">
            <g id="search" transform="translate(445.000000, 302.000000)">
                <mask id="mask-2" fill="white">
                    <use xlink:href="#path-1"></use>
                </mask>
                <g id="Clip-2"></g>
                <path d="M15.7733089,14.6461896 L12.1407706,11.0136514 C12.1208073,10.9932966 12.099474,10.9741896 12.0771131,10.9565015 C14.2931865,8.144 13.9333823,4.09171865 11.2564893,1.71356575 C8.57959633,-0.664587156 4.51310092,-0.544464832 1.98116208,1.98744954 C-0.550752294,4.51938838 -0.670776758,8.5858104 1.70737615,11.2626789 C4.08543119,13.9395719 8.13771254,14.2993761 10.9503119,12.0833028 C10.9679755,12.1057615 10.9870092,12.1269969 11.0073639,12.1469602 L14.6399021,15.7794985 C14.9550826,16.0790214 15.4515474,16.0726116 15.7589725,15.7651865 C16.066422,15.457737 16.0727339,14.96137 15.7733089,14.6461896 Z M6.7640367,11.9310826 C3.91388379,11.9310826 1.60340061,9.62047706 1.60340061,6.77032416 C1.60340061,3.92017125 3.91388379,1.60959021 6.7640367,1.60959021 C9.61428746,1.60959021 11.9247951,3.92017125 11.9247951,6.77032416 C11.9214434,9.61915596 9.6128685,11.9277309 6.7640367,11.9310826 Z" id="Fill-3" fill="#8C95A8" mask="url(#mask-2)"></path>
            </g>
        </g>
    </g>
</svg>