<?xml version="1.0" encoding="UTF-8"?>
<svg width="189px" height="56px" viewBox="0 0 189 56" version="1.1" xmlns="http://www.w3.org/2000/svg" xmlns:xlink="http://www.w3.org/1999/xlink">
    <!-- Generator: Sketch 60.1 (88133) - https://sketch.com -->
    <title>logo</title>
    <desc>Created with Sketch.</desc>
    <g id="页面-1" stroke="none" stroke-width="1" fill="none" fill-rule="evenodd">
        <g id="Landing-Page" transform="translate(-546.000000, -98.000000)">
            <g id="logo" transform="translate(546.000000, 98.000000)">
                <path d="M27.1455834,1.48120154 L27.3841864,1.62469983 L30.3178632,3.30847055 L30.3178632,8.46994568 C30.5129195,8.52173795 30.6461593,8.63300778 30.7975097,8.74200544 L30.9156671,8.82236281 L34.8710925,11.1143794 C35.2684102,11.3430589 35.6427555,11.5748711 36.0249323,11.7941529 C38.5837416,13.2617744 38.108109,13.301454 39.5658107,12.4211943 C39.9646947,12.1805065 40.3244212,11.994117 40.7290483,11.7508186 C41.1206229,11.5153518 41.4495455,11.3305286 41.840598,11.096628 C42.8361546,10.5004775 42.8658498,10.5474583 43.5825558,10.9538819 L43.7165013,11.0292772 L48.7886974,13.9702634 C48.7886974,15.8941998 48.7860869,17.8181363 48.7886974,19.7420728 C48.789176,20.281445 48.870377,20.5768953 48.6108477,20.8399542 L48.5313024,20.9110534 L45.8216063,22.4794402 C44.5492737,23.1906108 44.3772689,23.0416895 44.3724345,23.7722996 L44.3727803,23.8828435 L44.3743466,32.4410976 L48.1741864,34.8208269 C48.2530234,34.8678158 48.6090952,35.0886639 48.6633936,35.146617 C48.8931173,35.3945272 48.8069709,36.168449 48.7910179,36.6604639 L48.7886974,36.7870534 L48.8565704,41.8801335 C48.5266035,42.1010396 47.8810566,42.4312643 47.5418309,42.6753633 L47.4301947,42.7624816 L47.2949709,42.8308766 L47.2265759,42.8977054 L47.158703,42.8977054 L47.09083,42.9661004 L47.0229571,42.9661004 L46.9550842,43.0344954 C46.6632306,43.1122882 46.775482,43.1994788 46.4517803,43.3461888 C46.2290179,43.447128 46.1969668,43.4628635 46.0568097,43.5420486 L45.9573521,43.5983628 L43.9796394,44.7443711 C43.7687113,44.8717634 43.189703,45.2763904 42.9495372,45.2763904 C42.6850068,45.2763904 40.6848806,44.1365325 40.0381199,43.7127192 L39.9516422,43.6547496 L38.8740289,43.1023683 L38.7388052,43.0344954 C38.6792858,42.9368628 38.7304516,42.9358186 38.6704102,43.0334512 C38.4239792,43.0705203 37.971319,43.300244 37.8141671,43.441733 C36.5266698,43.9946363 33.4656008,45.5859954 32.1217168,46.3999484 C30.9269502,47.1233172 30.4679893,47.1281112 30.3938518,47.7971483 L30.3846919,47.9223904 L30.3846919,51.117117 C30.3832375,51.7827565 30.5524004,52.2993872 30.1514455,52.6657551 L30.0484599,52.7476335 L27.3069157,54.351523 C24.2081849,56.0431252 24.9374919,56.2509612 23.2383162,55.2376029 L23.0909626,55.1503352 L19.0467803,52.8113297 C18.8114875,52.6721031 18.690051,52.5827919 18.6183007,52.2955155 L18.593598,52.178023 L18.5737582,47.851907 C18.5742803,47.1042606 18.0829847,47.0713683 16.8513521,46.3827192 C15.0662941,45.3849871 13.4728466,44.69686 11.8694792,43.8265203 C11.6961422,43.7325424 11.6930096,43.7069595 11.5259378,43.6270783 C10.22769,43.0081057 10.3694303,42.845819 9.85825236,43.1597443 L9.78055932,43.2078324 L7.03953722,44.8132882 C6.4529212,45.1652578 6.13596155,45.429893 5.65558744,45.1933519 L5.54163391,45.1296805 L4.17112286,44.3266915 C3.90589634,44.1773711 4.06774717,44.2525534 3.87039358,44.0844374 C3.60649604,43.8599346 2.69925116,43.4429886 2.25758092,43.2254681 L2.14015601,43.1665866 L0.0992692676,42.0158794 L0.0992692676,34.8855672 C0.375655663,34.8627254 0.835918957,34.5576725 1.15162903,34.3698411 L1.27712562,34.2976833 L3.51588805,33.004965 C3.76893225,32.8639982 3.99413115,32.7167661 4.22536319,32.5764181 L4.58097093,32.3727026 L4.58097093,25.2429125 C4.58097093,23.2589346 4.86081623,23.4703849 3.49448197,22.7300479 C3.07941291,22.505023 0.251722306,20.9167965 0.135816229,20.7241418 C-0.0563163677,20.4051391 0.0313963395,16.0910313 0.0313963395,15.5318628 C0.0313963395,15.0504871 -0.0923412296,14.1817136 0.151479212,13.8862054 C0.327426726,13.6726667 4.39301512,11.3806501 5.19600407,10.91807 C5.7208345,10.615413 5.90356313,10.4315351 6.34742798,10.6625117 L6.46418363,10.72907 L8.13542396,11.7059181 C11.332761,13.4523407 9.72051789,13.3494871 12.7304212,11.7978076 C12.8686035,11.726454 12.9944875,11.6490672 13.1253991,11.5679678 L13.327703,11.4438241 L14.9994654,10.4674982 C15.1393881,10.3839623 15.2644599,10.324791 15.390924,10.2641501 L15.5836947,10.1688573 L17.2403162,9.17739043 C17.5676726,8.98369154 18.1075234,8.75971088 18.3215842,8.49291806 C18.4746246,8.30241702 18.4485849,8.12950421 18.4379349,7.85001275 L18.4348798,7.72334347 L18.4343577,3.30847055 C18.6450248,3.19726336 18.8151639,3.07107845 18.9965364,2.95194189 L19.1835704,2.83597055 L22.8481864,0.728255076 C24.6350778,-0.238114576 23.9010947,-0.475268579 27.1455834,1.48120154 Z M38.0218299,21.8631275 L37.9253742,21.916617 L34.9353107,23.680791 C34.9483632,24.2509236 35.7503079,25.7603131 35.7529184,27.6168987 C35.7555289,29.3497468 35.603598,30.5145507 35.1483273,31.7707219 C34.5714476,33.3601533 33.75523,34.6604219 32.6545037,35.8345539 L32.3733687,36.1255534 L31.0649875,37.2277054 C30.8635224,37.2962309 30.4442031,37.5602256 30.2470351,37.7363791 L30.1774184,37.8056694 L29.3008135,38.2144733 C28.9974737,38.349175 28.752609,38.4729125 28.3918383,38.5956059 C27.8775704,38.7700741 27.3266829,38.9546943 26.7373632,39.0621477 L26.379145,39.1166612 L26.1755262,39.1636501 L25.8361615,39.1636501 C25.8418176,39.4299208 25.8862686,39.6584844 25.900022,39.9780527 L25.9040345,40.181744 L25.9040345,43.3059871 C26.1906671,43.3728158 26.9680731,43.8562799 27.2834212,44.0317054 C27.7282499,44.2791805 28.3652113,44.796581 28.6205179,44.6817192 C29.0564709,44.5412744 29.8187361,44.2060866 30.1393052,43.9173656 C30.6574596,43.7706077 35.0417207,41.4272335 36.5165868,40.7197995 L36.5808842,35.0315165 L37.0528261,35.0372121 C37.0533861,35.0364413 37.0539482,35.0356665 37.0545124,35.0348877 C37.2998991,34.6965672 37.3040759,34.7472109 37.8789074,34.4334291 C38.8147706,33.9220327 39.6957156,33.3894913 40.6032386,32.8769936 L41.5226394,32.3727026 L41.5226394,25.1066446 C41.5226394,23.680791 41.6970206,23.5460893 41.0475289,23.2051584 C40.5202085,22.9279236 40.0163825,22.6193628 39.498982,22.3092357 C38.6301759,21.7884415 38.4818058,21.6228177 38.0218299,21.8631275 Z M9.89191687,21.8572589 L9.8061422,21.911396 L8.17666982,22.8621391 C7.98662562,22.9717799 7.80725546,23.0691225 7.63020573,23.1745866 L7.36532728,23.3414263 L7.36532728,32.3727026 C7.58721954,32.4322219 8.16413943,32.8253628 8.39751789,32.9705065 C8.72487424,33.1756915 9.02038253,33.3704346 9.34826098,33.5818849 C9.69180242,33.8037772 10.0243798,33.9891225 10.3533024,34.2063158 C11.5491451,34.997427 11.8789318,34.8937394 11.9147401,35.6983267 L11.9180345,35.8331777 L11.9827748,40.3858849 C12.2746284,40.5404263 12.540377,40.711675 12.844761,40.8824015 C14.8120317,41.9819429 16.8654488,42.9969042 18.8870179,44.0076888 C19.7166339,44.4222357 20.2241146,44.8451363 20.6767748,44.6018379 C20.96654,44.4457302 21.2286339,44.2729153 21.528319,44.0912247 C22.1096021,43.7382855 22.9074207,43.442969 23.0790423,43.1011877 L23.1071477,43.0214429 L23.1196781,39.1636501 C20.5373742,38.9485451 17.3410814,37.0340065 15.7852251,35.0218352 C15.0375787,34.054907 14.0377582,32.4948739 13.7761864,31.2585424 C13.5871864,30.3620976 13.548551,30.7432302 13.4242914,30.3208518 C13.2995631,29.8996915 13.2775472,28.849065 13.2739468,28.1013544 L13.2734046,27.5511142 C13.2734046,25.7683596 13.9347547,24.4550247 14.0125606,23.7399519 L14.0200068,23.6129181 L10.7328687,21.6660092 C10.3630657,21.5156446 10.144661,21.6921821 9.89191687,21.8572589 Z M29.9982861,22.4665443 C29.9246701,22.4952598 29.8578414,22.538594 29.7873579,22.5740968 C29.6349049,22.6586769 29.4793193,22.7369918 29.3268662,22.822094 C29.0908773,22.9526189 28.8434021,23.0653924 28.6251646,23.2256769 C28.2153165,23.5217073 27.8373165,23.8579393 27.4603607,24.1946935 C27.1920016,24.4432128 26.9215541,24.6896437 26.6615485,24.948083 C26.5284132,25.0660775 26.4083303,25.1986907 26.2783276,25.3203399 C25.839764,25.7573371 25.4085099,26.2016437 24.9866535,26.654304 C23.9006867,27.8342487 22.8246397,29.0230692 21.7397171,30.203536 L21.7157005,30.146823 L21.7157005,30.146823 L21.6979491,30.088152 L20.9952032,27.872362 C20.9915485,27.8488675 20.9612668,27.8587874 20.9445596,27.8556548 C20.7127474,27.8577432 20.4798911,27.8551327 20.2475568,27.856699 C20.0089574,27.8556548 19.7714021,27.9005554 19.5468994,27.9778261 C19.4038441,28.0305581 19.2592226,28.0958205 19.1521922,28.2075498 C19.0545596,28.3077929 18.9522281,28.4043813 18.8561618,28.5067128 C19.2540016,29.248094 19.6586287,29.9863426 20.0585568,30.7266797 C20.3577198,31.2801051 20.6725458,31.8251769 21.0145209,32.3535415 C21.1539215,32.5597708 21.2901894,32.7701769 21.4536066,32.959699 C21.592485,32.959699 21.7313635,32.96492 21.8702419,32.9570885 C21.9120099,32.9215857 21.9422916,32.8745968 21.980927,32.8359614 C22.1767143,32.6036272 22.3568386,32.3582404 22.5348745,32.1128537 C22.8747613,31.6398316 23.1958524,31.1548012 23.5101563,30.6650719 C23.9555071,29.9544946 24.4436701,29.2721106 24.9412309,28.5975581 C25.5907226,27.7188647 26.2631867,26.8574007 26.9612336,26.0168205 C27.199311,25.7268813 27.4445817,25.4432073 27.6916314,25.1611576 L28.0628635,24.7387211 L29.9841894,22.554257 C30.0097723,22.5323288 29.9972419,22.4957819 29.9982861,22.4665443 Z M18.0777062,12.0643727 L17.8673577,12.1810286 L13.9918135,14.4166584 C13.5511615,14.6756197 13.1276809,14.9304042 12.6994046,15.1745147 L12.0506477,15.5318628 L12.0506477,19.1312164 L15.4463825,21.1000534 C15.6322499,20.9757937 15.7215289,20.8677192 15.8536201,20.6928158 C16.1428632,20.3122054 16.845609,19.6480949 17.2215206,19.344233 C17.3160206,19.2680065 17.3405593,19.2314595 17.4355814,19.1510562 C17.5817693,19.0273186 17.7138604,18.9584015 17.8720566,18.840407 C20.2692278,17.0455451 23.4221441,16.3922891 26.3834659,16.8899633 L26.7242527,16.9524954 L29.0862306,17.7142385 C31.4871981,18.6959719 32.9400377,20.6870028 33.3951272,21.0648431 L33.4415842,21.1000534 L36.0667002,19.6512275 C36.3758875,19.4820672 36.752316,19.3268627 36.8245098,19.1304254 L36.8367969,19.0633435 L36.8367969,15.7360037 C36.8367969,15.564233 36.6413278,15.4844007 36.4710917,15.3957743 L36.4003218,15.3569595 L30.8900842,12.1758076 C28.5547334,10.7943324 29.1128577,10.8935313 27.6483687,11.7080065 C27.2766339,11.9152799 26.9315262,12.1340396 26.5796311,12.3366142 C24.1074903,13.7598573 24.6546505,13.7363628 23.1666671,12.9046584 C22.7876229,12.692686 22.4493024,12.4770589 22.0974074,12.2760507 C19.276185,10.6613856 20.4295857,10.738921 18.0777062,12.0643727 Z" id="形状结合" fill="#3C8BEC"></path>
                <path d="M29.7873579,22.5740968 C29.8578414,22.538594 29.9246701,22.4952598 29.9982861,22.4665443 C29.9972419,22.4957819 30.0097723,22.5323288 29.9841894,22.554257 C29.3440955,23.2825857 28.7034795,24.0103924 28.0628635,24.7387211 C27.6916508,25.1610996 27.3183497,25.5819117 26.9612336,26.0168205 C26.2631867,26.8574007 25.5907226,27.7188647 24.9412309,28.5975581 C24.4436701,29.2721106 23.9555071,29.9544946 23.5101563,30.6650719 C23.1958524,31.1548012 22.8747613,31.6398316 22.5348745,32.1128537 C22.3568386,32.3582404 22.1767143,32.6036272 21.980927,32.8359614 C21.9422916,32.8745968 21.9120099,32.9215857 21.8702419,32.9570885 C21.7313635,32.96492 21.592485,32.959699 21.4536066,32.959699 C21.2901894,32.7701769 21.1539215,32.5597708 21.0145209,32.3535415 C20.6725458,31.8251769 20.3577198,31.2801051 20.0585568,30.7266797 C19.6586287,29.9863426 19.2540016,29.248094 18.8561618,28.5067128 C18.9522281,28.4043813 19.0545596,28.3077929 19.1521922,28.2075498 C19.2592226,28.0958205 19.4038441,28.0305581 19.5468994,27.9778261 C19.7714021,27.9005554 20.0089574,27.8556548 20.2475568,27.856699 C20.4798911,27.8551327 20.7127474,27.8577432 20.9445596,27.8556548 C20.9612668,27.8587874 20.9915485,27.8488675 20.9952032,27.872362 C21.2291038,28.6111327 21.4635264,29.3499034 21.6979491,30.088152 C21.7099574,30.1267874 21.7193552,30.1675112 21.7397171,30.203536 C22.8246397,29.0230692 23.9006867,27.8342487 24.9866535,26.654304 C25.4085099,26.2016437 25.839764,25.7573371 26.2783276,25.3203399 C26.4083303,25.1986907 26.5284132,25.0660775 26.6615485,24.948083 C26.9215541,24.6896437 27.1920016,24.4432128 27.4603607,24.1946935 C27.8373165,23.8579393 28.2153165,23.5217073 28.6251646,23.2256769 C28.8434021,23.0653924 29.0908773,22.9526189 29.3268662,22.822094 C29.4793193,22.7369918 29.6349049,22.6586769 29.7873579,22.5740968" id="Fill-3" fill="#FFFFFF"></path>
                <path d="M82.3998414,17.6406747 L82.634784,17.6447582 C86.1445562,17.7669227 88.9924911,20.6148576 89.1146557,24.1246298 L89.1187392,24.3595725 L89.1187392,24.6952824 L85.6330466,24.6952302 L85.6330466,24.3595203 C85.6330466,23.9236032 85.5498795,23.5097404 85.3982966,23.1326832 L85.3293434,22.9734358 C85.1370153,22.5611041 84.8606386,22.198096 84.5212647,21.9054627 C84.0082516,21.4628482 83.3501596,21.1809342 82.6206173,21.1333351 L82.3987309,21.1254114 L82.214413,21.1312595 C80.5584846,21.2217519 79.2620208,22.5182157 79.1715283,24.1741442 L79.1664795,24.3595725 L79.1664795,35.1096001 L79.1715283,35.2950284 C79.2620208,36.9509569 80.5584846,38.2474207 82.214413,38.3379131 L82.3998414,38.342962 L82.5851131,38.3378609 C84.2410415,38.2473691 85.5375053,36.9509214 85.6279978,35.2954461 L85.6330466,35.11007 L85.6332032,34.7733681 L89.1187392,34.7733681 L89.1187392,35.1096001 L89.1146557,35.3445428 C88.9924911,38.854315 86.1445562,41.7022498 82.634784,41.8244144 L82.3998414,41.8284979 L82.3956529,41.8284445 L82.1648668,41.8244144 C79.1226672,41.7185385 76.5782771,39.5653061 75.8743454,36.7082614 L75.8237152,36.4874175 C75.7534742,36.1537339 75.7081975,35.8111428 75.6899493,35.4617087 L75.6807869,35.11007 L75.6807869,24.3595203 C75.6807869,22.2253872 76.6891623,20.3153569 78.2529895,19.0823527 C79.3208014,18.2404558 80.6475429,17.7142381 82.0892069,17.6478174 L82.3998414,17.6406747 Z M97.3243673,17.6406225 C100.941161,17.6406225 103.914302,20.5368105 104.039182,24.1245776 L104.043265,24.3595203 L104.043474,24.6952824 L100.557729,24.6952302 L100.557729,24.3595203 C100.557729,23.9236032 100.474562,23.5097404 100.322979,23.1326832 L100.253992,22.9734358 C100.245803,22.9558833 100.237461,22.9384202 100.228969,22.921048 C99.7353809,21.9106749 98.7313792,21.2077871 97.5370432,21.1328069 L97.3243673,21.1261584 L97.1391479,21.1312595 C95.4832194,21.2217519 94.1867556,22.5182157 94.0962632,24.1741442 L94.0912143,24.3595725 L94.0912143,35.1096001 L94.0962632,35.2950284 C94.1867556,36.9509569 95.4832194,38.2474207 97.1391479,38.3379131 L97.3245762,38.342962 L97.5097957,38.3378609 C99.1657241,38.2473691 100.462188,36.9509214 100.55268,35.2954461 L100.557729,35.11007 L100.557731,34.7734114 L104.043474,34.7733681 L104.043474,35.1096001 L104.03939,35.3445428 C103.917205,38.854315 101.068801,41.7022498 97.5594869,41.8244144 L97.3243673,41.8284457 L97.0896335,41.8244144 C97.0116386,41.8216996 96.9339705,41.8176388 96.8566518,41.8122546 L96.6255582,41.7921022 C96.2425732,41.7520604 95.8688915,41.6795 95.5073442,41.5772527 L95.2921035,41.5124131 C94.8642073,41.3756002 94.4546001,41.1968522 94.0681742,40.9810614 L93.8767069,40.8700701 C91.9932398,39.7357256 90.70378,37.7046902 90.6108481,35.3796181 L90.6054695,35.11007 L90.6054695,24.3595203 C90.6054695,20.6641004 93.6289474,17.6406225 97.3243673,17.6406225 Z M109.015949,17.9763846 L109.015949,35.1096001 L109.020998,35.2950284 C109.11149,36.9509569 110.407954,38.2474207 112.063883,38.3379131 L112.249311,38.342962 L112.434637,38.3379653 C113.177177,38.297377 113.847574,38.0141753 114.369331,37.5647434 C115.004778,37.0170297 115.419632,36.2227228 115.475655,35.3198258 L115.482151,35.1096001 L115.482151,17.9763846 L118.968209,17.9763846 L118.968209,35.1096001 L118.964125,35.3445428 C118.947833,35.8125124 118.883076,36.268716 118.774748,36.7082614 L118.716961,36.9266754 C118.042118,39.3128872 116.074074,41.1705207 113.626782,41.6856218 L113.402922,41.7286759 C113.027867,41.7942802 112.642385,41.8284979 112.249311,41.8284979 C110.598114,41.8285501 109.081114,41.2249495 107.908015,40.227505 L107.742608,40.0823042 C106.453338,38.912359 105.616704,37.2514423 105.536264,35.4029773 L105.529891,35.1096001 L105.529891,17.9763846 L109.015949,17.9763846 Z M65.3752226,11.6774114 C69.9107669,11.6774114 73.6365231,15.3207032 73.7705058,19.8253013 L73.7742364,20.0764252 L73.7742364,41.4924225 L70.2887005,41.4924225 L70.2887005,28.558975 L60.4622668,28.558975 L60.4622668,41.4924225 L56.9767309,41.4924225 L56.9767309,20.0764252 C56.9767309,15.4568893 60.7562088,11.6774114 65.3752226,11.6774114 Z M65.3752226,15.1629473 C62.6456867,15.1629473 60.4622668,17.3468893 60.4622668,20.0764252 L60.4622668,20.0764252 L60.4622668,25.0734391 L70.2887005,25.0734391 L70.2887005,20.0764252 C70.2887005,17.3468893 68.1047585,15.1629473 65.3752226,15.1629473 Z" id="形状结合" fill="#3C8BEC"></path>
                <path d="M118.968209,17.9763846 L118.96811,32.1657616 C117.798771,32.1372344 116.636564,32.1041744 115.481958,32.0666737 L115.482151,17.9763846 L118.968209,17.9763846 Z M109.015949,17.9763846 L109.014985,31.8068391 C107.843554,31.7506001 106.681334,31.6897282 105.528855,31.6243275 L105.529891,17.9763846 L109.015949,17.9763846 Z M97.3243673,17.6406225 C100.941161,17.6406225 103.914302,20.5368105 104.039182,24.1245776 L104.043265,24.3595203 L104.043474,24.6952824 L100.557729,24.6952302 L100.557729,24.3595203 C100.557729,23.9236032 100.474562,23.5097404 100.322979,23.1326832 L100.253992,22.9734358 C100.245803,22.9558833 100.237461,22.9384202 100.228969,22.921048 C99.7353809,21.9106749 98.7313792,21.2077871 97.5370432,21.1328069 L97.3243673,21.1261584 L97.1391479,21.1312595 C95.4832194,21.2217519 94.1867556,22.5182157 94.0962632,24.1741442 L94.0912143,24.3595725 L94.090464,30.8006052 C92.9147668,30.6970624 91.752754,30.5885723 90.6051077,30.4752691 L90.6054695,24.3595203 C90.6054695,20.6641004 93.6289474,17.6406225 97.3243673,17.6406225 Z M82.3998414,17.6406747 L82.634784,17.6447582 C86.1445562,17.7669227 88.9924911,20.6148576 89.1146557,24.1246298 L89.1187392,24.3595725 L89.1187392,24.6952824 L85.6330466,24.6952302 L85.6330466,24.3595203 C85.6330466,23.9236032 85.5498795,23.5097404 85.3982966,23.1326832 L85.3293434,22.9734358 C85.1370153,22.5611041 84.8606386,22.198096 84.5212647,21.9054627 C84.0082516,21.4628482 83.3501596,21.1809342 82.6206173,21.1333351 L82.3987309,21.1254114 L82.214413,21.1312595 C80.5584846,21.2217519 79.2620208,22.5182157 79.1715283,24.1741442 L79.1664795,24.3595725 L79.1662522,29.1220473 C77.9820096,28.9566015 76.8195039,28.7855143 75.6797443,28.6089843 L75.6807869,24.3595203 C75.6807869,22.2253872 76.6891623,20.3153569 78.2529895,19.0823527 C79.3208014,18.2404558 80.6475429,17.7142381 82.0892069,17.6478174 L82.3998414,17.6406747 Z M65.3752226,11.6774114 C69.9107669,11.6774114 73.6365231,15.3207032 73.7705058,19.8253013 L73.7742364,20.0764252 L73.774948,28.3054306 C67.3284564,27.2485748 61.6629739,26.0131461 56.9741494,24.6376824 L56.9767309,20.0764252 C56.9767309,15.4568893 60.7562088,11.6774114 65.3752226,11.6774114 Z M65.3752226,15.1629473 C62.7194579,15.1629473 60.5806884,17.2304337 60.4670192,19.8563395 L60.4622668,20.0764252 L60.4622668,25.0734391 L70.2887005,25.0734391 L70.2887005,20.0764252 C70.2887005,17.3468893 68.1047585,15.1629473 65.3752226,15.1629473 Z" id="形状结合" fill="#FFFFFF" opacity="0.400000006"></path>
                <path d="M129.27393,11.6777769 L129.525026,11.681507 C134.02913,11.8154714 137.672421,15.5407243 137.672421,20.0762686 L137.672421,20.0762686 L137.672421,20.4960366 L134.186886,20.4960366 L134.186886,20.0762686 L134.182133,19.8561828 C134.068464,17.2302771 131.929694,15.1627907 129.27393,15.1627907 L129.27393,15.1627907 L129.053804,15.1675442 C126.427444,15.2812402 124.360452,17.4205039 124.360452,20.0762686 L124.360452,20.0762686 L124.360452,33.5140642 L124.365204,33.7341488 C124.478874,36.3600279 126.617657,38.42702 129.27393,38.42702 L129.27393,38.42702 L129.494014,38.4222676 C132.119893,38.3085984 134.186886,36.1698289 134.186886,33.5140642 L134.186886,33.5140642 L134.186886,33.0942962 L137.672421,33.0942962 L137.672421,33.5140642 L137.668691,33.7651601 C137.534708,38.2692641 133.808962,41.9125559 129.27393,41.9125559 L129.27393,41.9125559 L129.022833,41.9088253 C124.518711,41.7748428 120.874916,38.0490959 120.874916,33.5140642 L120.874916,33.5140642 L120.874916,20.0762686 C120.874916,15.4567327 124.654916,11.6777769 129.27393,11.6777769 L129.27393,11.6777769 Z M173.333902,17.9769067 L173.333902,41.4927879 L169.848366,41.4927879 L169.848366,17.9769067 L173.333902,17.9769067 Z M142.644375,17.9763846 L142.644375,28.0127023 L149.11162,28.0127023 L149.11162,17.9763846 L152.597156,17.9763846 L152.597156,41.4927879 L149.11162,41.4927879 L149.11162,31.4982382 L142.644375,31.4982382 L142.644375,41.4927879 L139.159361,41.4927879 L139.159361,17.9763846 L142.644375,17.9763846 Z M161.222239,17.6406747 L161.457214,17.6447582 C165.045449,17.7696375 167.941137,20.7427785 167.941137,24.3595725 L167.941137,24.3595725 L167.941137,41.4927879 L164.456123,41.4927879 L164.456123,31.4982382 L157.988877,31.4982382 L157.988877,41.4927879 L154.503863,41.4927879 L154.503863,24.3595725 C154.503863,20.6641526 157.527341,17.6406747 161.222239,17.6406747 L161.222239,17.6406747 Z M181.959507,17.6406747 L182.19445,17.6447582 C185.782217,17.7696375 188.678405,20.7427785 188.678405,24.3595725 L188.678405,24.3595725 L188.678405,41.4927879 L185.192869,41.4927879 L185.192869,24.3595725 L185.18782,24.1741442 C185.093976,22.456885 183.703175,21.1262106 181.959507,21.1262106 L181.959507,21.1262106 L181.774079,21.1312595 C180.05682,21.2251034 178.726145,22.6159044 178.726145,24.3595725 L178.726145,24.3595725 L178.726145,41.4927879 L175.240609,41.4927879 L175.240609,24.3595725 C175.240609,20.6641526 178.264087,17.6406747 181.959507,17.6406747 L181.959507,17.6406747 Z M161.222239,21.1262106 L161.036912,21.1312595 C159.320525,21.2251034 157.988877,22.6159044 157.988877,24.3595725 L157.988877,24.3595725 L157.988877,28.0127023 L164.456123,28.0127023 L164.456123,24.3595725 L164.451072,24.1741442 C164.357195,22.456885 162.965907,21.1262106 161.222239,21.1262106 L161.222239,21.1262106 Z" id="形状结合" fill="#122134"></path>
                <path d="M129.27393,11.6777769 L129.525026,11.681507 C133.94572,11.8129905 137.53719,15.4039835 137.668691,19.8251452 L137.672421,20.0762686 L137.672421,20.4960366 L134.186886,20.4960366 L134.186886,20.0762686 L134.182133,19.8561828 C134.071621,17.3032189 132.046952,15.2780819 129.494014,15.1675442 L129.27393,15.1627907 L129.053804,15.1675442 C126.500398,15.2780819 124.475716,17.3032189 124.365204,19.8561828 L124.360452,20.0762686 L124.360396,32.2642551 C123.192,32.2500154 122.029794,32.2312709 120.874221,32.2081085 L120.874916,20.0762686 C120.874916,15.4567327 124.654916,11.6777769 129.27393,11.6777769 Z M142.644375,17.9763846 L142.644375,28.0127023 L149.11162,28.0127023 L149.11162,17.9763846 L152.597156,17.9763846 L152.597744,31.711684 C151.445158,31.7724358 150.283218,31.8286796 149.11244,31.8803136 L149.11162,31.4982382 L142.644375,31.4982382 L142.644576,32.1155461 C141.490397,32.148736 140.328925,32.1774992 139.16062,32.2017454 L139.159361,17.9763846 L142.644375,17.9763846 Z M161.222239,17.6406747 L161.457214,17.6447582 C164.967444,17.7669227 167.81491,20.6148576 167.937054,24.1246298 L167.941137,24.3595725 L167.941575,30.5892362 C163.645791,30.9975752 159.15528,31.3389749 154.504923,31.6065647 L154.503863,24.3595725 C154.503863,20.6641526 157.527341,17.6406747 161.222239,17.6406747 Z M173.333902,17.9769067 L173.3349,30.0301126 C172.189174,30.1591169 171.027261,30.2831788 169.849911,30.4021511 L169.848366,17.9769067 L173.333902,17.9769067 Z M181.959507,17.6406747 L182.19445,17.6447582 C185.704222,17.7669227 188.552157,20.6148576 188.674321,24.1246298 L188.678405,24.3595725 L188.680085,27.8385547 C187.544708,28.0407672 186.382352,28.2372103 185.194209,28.4276496 L185.192869,24.3595725 L185.18782,24.1741442 C185.097328,22.5182157 183.800864,21.2217519 182.144935,21.1312595 L181.959507,21.1262106 L181.774079,21.1312595 C180.11815,21.2217519 178.821687,22.5182157 178.731194,24.1741442 L178.726145,24.3595725 L178.72706,29.3708871 C177.584088,29.5221591 176.42206,29.6682742 175.241834,29.8090632 L175.240609,24.3595725 C175.240609,20.6641526 178.264087,17.6406747 181.959507,17.6406747 Z M161.222239,21.1262106 L161.036912,21.1312595 C159.381825,21.2217519 158.084486,22.5182157 157.99393,24.1741442 L157.988877,24.3595725 L157.988877,28.0127023 L164.456123,28.0127023 L164.456123,24.3595725 L164.451072,24.1741442 C164.357195,22.456885 162.965907,21.1262106 161.222239,21.1262106 Z" id="形状结合" fill="#FFFFFF" opacity="0.400000006"></path>
            </g>
        </g>
    </g>
</svg>