<?xml version="1.0" encoding="UTF-8"?>
<svg width="12px" height="12px" viewBox="0 0 12 12" version="1.1" xmlns="http://www.w3.org/2000/svg" xmlns:xlink="http://www.w3.org/1999/xlink">
    <!-- Generator: Sketch 60.1 (88133) - https://sketch.com -->
    <title>Verified Student</title>
    <desc>Created with Sketch.</desc>
    <g id="页面-1" stroke="none" stroke-width="1" fill="none" fill-rule="evenodd">
        <path d="M5.28835224,0.29686446 C5.68430402,-0.0989548199 6.32021192,-0.0989548199 6.71617834,0.29686446 L6.71617834,0.29686446 L7.98799414,1.56820763 L9.39780045,1.56820763 C9.97373031,1.56820763 10.4416733,2.03599139 10.4416733,2.61170723 L10.4416733,2.61170723 L10.4416733,4.02098964 L11.7074972,5.28638703 C12.0975009,5.68219167 12.0975009,6.3178779 11.7074972,6.71368253 L11.7074972,6.71368253 L10.4416733,7.97902134 L10.4416733,9.39430812 C10.4416733,9.97002395 9.97373031,10.4378077 9.39780045,10.4378077 L9.39780045,10.4378077 L7.98198754,10.4378077 L6.71617834,11.7031465 C6.32021192,12.0989512 5.68430402,12.0989512 5.28835224,11.7031465 L5.28835224,11.7031465 L4.02246979,10.4378077 L2.61267813,10.4378077 C2.03673362,10.4378077 1.56879061,9.97002395 1.56879061,9.39430812 L1.56879061,9.39430812 L1.56879061,7.98502571 L0.296974819,6.71368253 C-0.0989916063,6.3178779 -0.0989916063,5.68219167 0.296974819,5.28638703 L0.296974819,5.28638703 L1.56879061,4.01502921 L1.56879061,2.61771159 C1.56879061,2.04199575 2.03673362,1.574212 2.61267813,1.574212 L2.61267813,1.574212 L4.0165218,1.574212 Z M4.80056082,4.2 L3.6,4.2 L5.30712794,8.4 L6.65648282,8.4 L8.4,4.2 L7.27099663,4.2 L6.03633244,7.42004459 L5.993185,7.42004459 L4.80056082,4.2 Z" id="Verified-Student" fill="#3C8BEC"></path>
    </g>
</svg>