<?xml version="1.0" encoding="UTF-8"?>
<svg width="24px" height="24px" viewBox="0 0 24 24" version="1.1" xmlns="http://www.w3.org/2000/svg" xmlns:xlink="http://www.w3.org/1999/xlink">
    <!-- Generator: Sketch 60.1 (88133) - https://sketch.com -->
    <title>3</title>
    <desc>Created with Sketch.</desc>
    <g id="页面-1" stroke="none" stroke-width="1" fill="none" fill-rule="evenodd">
        <g id="编组-5备份">
            <polygon id="多边形备份-2" fill="#3C8BEC" points="12 0 22.3923048 6 22.3923048 18 12 24 1.60769515 18 1.60769515 6"></polygon>
            <path d="M11.0834775,16.63 C11.7334775,16.63 12.3098109,16.5823333 12.8124775,16.487 C13.3151442,16.3916667 13.7398109,16.2356667 14.0864775,16.019 C14.4331442,15.8023333 14.6974775,15.5228333 14.8794775,15.1805 C15.0614775,14.8381667 15.1524775,14.42 15.1524775,13.926 C15.1524775,13.406 15.0138109,12.9553333 14.7364775,12.574 C14.4591442,12.1926667 14.0734775,11.9456667 13.5794775,11.833 L13.5794775,11.833 L13.5794775,11.755 C14.0821442,11.5816667 14.4309775,11.326 14.6259775,10.988 C14.8209775,10.65 14.9184775,10.286 14.9184775,9.896 C14.9184775,9.402 14.8296442,8.99033333 14.6519775,8.661 C14.4743109,8.33166667 14.2273109,8.0695 13.9109775,7.8745 C13.5946442,7.6795 13.2198109,7.543 12.7864775,7.465 C12.3531442,7.387 11.8808109,7.348 11.3694775,7.348 C11.1701442,7.348 10.9686442,7.35666667 10.7649775,7.374 C10.5613109,7.39133333 10.3663109,7.413 10.1799775,7.439 C9.99364421,7.465 9.82464421,7.49316667 9.67297755,7.5235 C9.52131088,7.55383333 9.39347755,7.58633333 9.28947755,7.621 L9.28947755,7.621 L9.28947755,9.571 C9.51481088,9.50166667 9.78347755,9.441 10.0954775,9.389 C10.4074775,9.337 10.7064775,9.311 10.9924775,9.311 C11.1831442,9.311 11.3651442,9.31966667 11.5384775,9.337 C11.7118109,9.35433333 11.8634775,9.389 11.9934775,9.441 C12.1234775,9.493 12.2253109,9.56883333 12.2989775,9.6685 C12.3726442,9.76816667 12.4094775,9.90033333 12.4094775,10.065 C12.4094775,10.2816667 12.3618109,10.4485 12.2664775,10.5655 C12.1711442,10.6825 12.0433109,10.7691667 11.8829775,10.8255 C11.7226442,10.8818333 11.5319775,10.9143333 11.3109775,10.923 C11.0899775,10.9316667 10.8494775,10.936 10.5894775,10.936 L10.5894775,10.936 L9.92647755,10.936 L9.92647755,12.795 L10.6024775,12.795 C10.8884775,12.795 11.1484775,12.8058333 11.3824775,12.8275 C11.6164775,12.8491667 11.8179775,12.8925 11.9869775,12.9575 C12.1559775,13.0225 12.2881442,13.1113333 12.3834775,13.224 C12.4788109,13.3366667 12.5264775,13.484 12.5264775,13.666 C12.5264775,13.874 12.4831442,14.0408333 12.3964775,14.1665 C12.3098109,14.2921667 12.1906442,14.3875 12.0389775,14.4525 C11.8873109,14.5175 11.7118109,14.5608333 11.5124775,14.5825 C11.3131442,14.6041667 11.1051442,14.615 10.8884775,14.615 C10.5418109,14.615 10.2254775,14.5955 9.93947755,14.5565 C9.65347755,14.5175 9.34581088,14.4633333 9.01647755,14.394 L9.01647755,14.394 L9.01647755,16.461 C9.30247755,16.5216667 9.60797755,16.565 9.93297755,16.591 C10.2579775,16.617 10.6414775,16.63 11.0834775,16.63 Z" id="3" fill="#FFFFFF" fill-rule="nonzero"></path>
        </g>
    </g>
</svg>