<?xml version="1.0" encoding="UTF-8"?>
<svg width="26px" height="26px" viewBox="0 0 26 26" version="1.1" xmlns="http://www.w3.org/2000/svg" xmlns:xlink="http://www.w3.org/1999/xlink">
    <!-- Generator: Sketch 60.1 (88133) - https://sketch.com -->
    <title>Fill 1备份</title>
    <desc>Created with Sketch.</desc>
    <g id="页面-1" stroke="none" stroke-width="1" fill="none" fill-rule="evenodd">
        <g id="Summary-of-Multiple-Validated-Achievements-(Certificates)" transform="translate(-1129.000000, -201.000000)" fill="#8C95A8">
            <path d="M1141.07148,213.07148 L1141.07148,201.619094 C1141.07148,201.27712 1141.3486,201 1141.69033,201 L1142.30943,201 C1142.6514,201 1142.92852,201.27712 1142.92852,201.619094 L1142.92852,213.07148 L1154.38091,213.07148 C1154.72283,213.07148 1155,213.3486 1155,213.690332 L1155,214.309426 C1155,214.6514 1154.72283,214.92852 1154.38091,214.92852 L1142.92852,214.92852 L1142.92852,226.380906 C1142.92852,226.722832 1142.6514,227 1142.30943,227 L1141.69033,227 C1141.3486,227 1141.07148,226.722832 1141.07148,226.380906 L1141.07148,214.92852 L1129.61909,214.92852 C1129.27712,214.92852 1129,214.6514 1129,214.309426 L1129,213.690332 C1129,213.3486 1129.27712,213.07148 1129.61909,213.07148 L1141.07148,213.07148 Z" id="Fill-1备份"></path>
        </g>
    </g>
</svg>