<?xml version="1.0" encoding="UTF-8"?>
<svg width="14px" height="14px" viewBox="0 0 14 14" version="1.1" xmlns="http://www.w3.org/2000/svg" xmlns:xlink="http://www.w3.org/1999/xlink">
    <!-- Generator: Sketch 60.1 (88133) - https://sketch.com -->
    <title>Home</title>
    <desc>Created with Sketch.</desc>
    <g id="页面-1" stroke="none" stroke-width="1" fill="none" fill-rule="evenodd">
        <g id="Add-Description-of-Achievement" transform="translate(-239.000000, -80.000000)" fill="#3C8BEC">
            <path d="M246.701761,80.2932018 C246.702945,80.2943802 246.704127,80.2955617 246.705305,80.2967461 L252.711816,86.3335934 C253.099388,86.7231228 253.097801,87.3530879 252.708272,87.7406598 C252.521829,87.9261659 252.269519,88.0303038 252.006511,88.0303038 L250.949,88.03 L250.949747,93.0050506 C250.949747,93.554546 250.504293,94 249.954798,94 L247.484,94 L247.484924,90.0202025 C247.484924,89.5099568 247.100834,89.0894203 246.606007,89.0319469 L246.489975,89.0252532 L245.510025,89.0252532 C244.96053,89.0252532 244.515076,89.4707072 244.515076,90.0202025 L244.515076,90.0202025 L244.515,94 L242.045202,94 C241.495707,94 241.050253,93.554546 241.050253,93.0050506 L241.05,88.03 L239.993489,88.0303038 C239.443994,88.0303038 238.99854,87.5848498 238.99854,87.0353544 C238.99854,86.7723458 239.102678,86.5200364 239.288184,86.3335934 L245.294695,80.2967461 C245.682267,79.9072167 246.312232,79.9056298 246.701761,80.2932018 Z" id="Home"></path>
        </g>
    </g>
</svg>