<?xml version="1.0" encoding="UTF-8"?>
<svg width="14px" height="14px" viewBox="0 0 14 14" version="1.1" xmlns="http://www.w3.org/2000/svg" xmlns:xlink="http://www.w3.org/1999/xlink">
    <!-- Generator: Sketch 60.1 (88133) - https://sketch.com -->
    <title>Certificates</title>
    <desc>Created with Sketch.</desc>
    <g id="页面-1" stroke="none" stroke-width="1" fill="none" fill-rule="evenodd">
        <path d="M12.0048615,1.00621367 L1.99513851,1.00621367 L1.99513851,12.5387043 L6.58338067,10.3125241 C6.89010144,10.1635757 7.24746289,10.1651218 7.55301743,10.316612 L12.0048615,12.5236627 L12.0048615,1.00621367 Z M1.23091526,0 L12.7690847,0 C12.8965417,0 13,0.104295287 13,0.233485177 L13,13.7633616 C13,13.8439415 12.9588966,13.9187563 12.8912806,13.961444 C12.8237684,14.0040269 12.7391254,14.0084293 12.6676479,13.9730004 L7.11445985,11.2201813 C7.08276407,11.2046156 7.0457036,11.204406 7.01393007,11.2198668 L1.33074529,13.9770097 C1.25926782,14.0117049 1.17514313,14.0068832 1.10801962,13.9642217 C1.04079244,13.9214292 1,13.8469027 1,13.766742 L1,0.233485177 C1,0.104295287 1.10314733,0 1.23091526,0 Z M6.79465128,7.31953757 C6.98609584,7.17939406 7.24484533,7.17939406 7.43618623,7.31953757 L8.12882834,7.82736128 L7.86551756,7.00426707 C7.79253694,6.77680901 7.87280007,6.52796779 8.06382997,6.38711674 L8.75548726,5.87795659 L7.89964948,5.8769346 C7.66344727,5.8769346 7.45409447,5.72258805 7.38080285,5.49554927 L7.11547059,4.67305777 L6.85003466,5.49554927 C6.77671712,5.72279769 6.56726066,5.87664634 6.33087703,5.8769346 L5.47503925,5.87795659 L6.16698162,6.38711674 C6.35811519,6.52796779 6.43809324,6.77680901 6.3653977,7.00426707 L6.10169817,7.82736128 L6.79465128,7.31953757 Z M5.82369279,9.10843759 C5.6320409,9.24876454 5.37287674,9.24865972 5.1814581,9.10801831 C4.99011721,8.9673769 4.90982815,8.71811641 4.98273103,8.49057973 L5.47402851,6.95594533 L4.18458319,6.0067272 C3.99344963,5.86587615 3.91347157,5.61664186 3.98655586,5.3891838 C4.05966607,5.16162092 4.26912253,5.00748401 4.50571349,5.00716956 L6.10138718,5.00512558 L6.59561321,3.47161799 C6.66911217,3.24426475 6.87877597,3.09052092 7.11526326,3.09052092 C7.35175055,3.09052092 7.56151801,3.24426475 7.6349133,3.47161799 L8.129554,5.00512558 L9.72512402,5.0068551 C9.96171498,5.00716956 10.1712751,5.16133266 10.2443594,5.38886934 C10.3173659,5.6163274 10.2374916,5.8655879 10.0462543,6.00643895 L8.756498,6.95563088 L9.24779548,8.49057973 C9.32069836,8.71811641 9.24051297,8.9673769 9.04906841,9.10801831 C8.85762385,9.24865972 8.5984597,9.24876454 8.40683373,9.10843759 L7.11547059,8.16147307 L5.82369279,9.10843759 Z M6.32986629,5.00481112 L6.10097251,5.00481112 L6.03001337,5.22519387 C6.07233487,5.09388139 6.1933127,5.00502076 6.32986629,5.00481112 Z" id="Fill-1" fill="#3C8BEC"></path>
    </g>
</svg>