<?xml version="1.0" encoding="UTF-8"?>
<svg width="24px" height="24px" viewBox="0 0 24 24" version="1.1" xmlns="http://www.w3.org/2000/svg" xmlns:xlink="http://www.w3.org/1999/xlink">
    <!-- Generator: Sketch 60.1 (88133) - https://sketch.com -->
    <title>22</title>
    <desc>Created with Sketch.</desc>
    <g id="页面-1" stroke="none" stroke-width="1" fill="none" fill-rule="evenodd">
        <g id="编组-6">
            <polygon id="多边形备份" fill="#DCDFE6" points="12 0 22.3923048 6 22.3923048 18 12 24 1.60769515 18 1.60769515 6"></polygon>
            <path d="M15.3344775,16.5 L15.3344775,14.498 L11.9414775,14.498 L11.9414775,14.42 L12.5654775,13.926 C13.1721442,13.4493333 13.6531442,13.0311667 14.0084775,12.6715 C14.3638109,12.3118333 14.6324775,11.9825 14.8144775,11.6835 C14.9964775,11.3845 15.1134775,11.0941667 15.1654775,10.8125 C15.2174775,10.5308333 15.2434775,10.221 15.2434775,9.883 C15.2434775,9.05966667 14.9531442,8.43133333 14.3724775,7.998 C13.7918109,7.56466667 12.9684775,7.348 11.9024775,7.348 C11.4258109,7.348 10.9578109,7.38266667 10.4984775,7.452 C10.0391442,7.52133333 9.62314421,7.62533333 9.25047755,7.764 L9.25047755,7.764 L9.25047755,9.779 C9.66647755,9.623 10.0456442,9.51466667 10.3879775,9.454 C10.7303109,9.39333333 11.0531442,9.363 11.3564775,9.363 C11.8764775,9.363 12.2253109,9.44316667 12.4029775,9.6035 C12.5806442,9.76383333 12.6694775,10.026 12.6694775,10.39 C12.6694775,10.598 12.5914775,10.8255 12.4354775,11.0725 C12.2794775,11.3195 12.0389775,11.6011667 11.7139775,11.9175 C11.3889775,12.2338333 10.9816442,12.6 10.4919775,13.016 C10.0023109,13.432 9.42381088,13.913 8.75647755,14.459 L8.75647755,14.459 L8.75647755,16.5 L15.3344775,16.5 Z" id="2" fill="#FFFFFF" fill-rule="nonzero"></path>
        </g>
    </g>
</svg>